
<?xml version="1.0" encoding="UTF-8" standalone="no"?>
<!-- Created with Inkscape (http://www.inkscape.org/) -->

<svg
   xmlns:dc="http://purl.org/dc/elements/1.1/"
   xmlns:cc="http://creativecommons.org/ns#"
   xmlns:rdf="http://www.w3.org/1999/02/22-rdf-syntax-ns#"
   xmlns:svg="http://www.w3.org/2000/svg"
   xmlns="http://www.w3.org/2000/svg"
   xmlns:sodipodi="http://sodipodi.sourceforge.net/DTD/sodipodi-0.dtd"
   xmlns:inkscape="http://www.inkscape.org/namespaces/inkscape"
   width="512"
   height="512"
   id="svg2"
   version="1.1"
   inkscape:version="0.48.5 r10040"
   sodipodi:docname="Simple Banana.svg">
  <defs
     id="defs4" />
  <sodipodi:namedview
     id="base"
     pagecolor="#ffffff"
     bordercolor="#666666"
     borderopacity="1.0"
     inkscape:pageopacity="0.0"
     inkscape:pageshadow="2"
     inkscape:zoom="0.98994949"
     inkscape:cx="461.63173"
     inkscape:cy="229.05279"
     inkscape:document-units="px"
     inkscape:current-layer="layer1"
     showgrid="false"
     fit-margin-top="0"
     fit-margin-left="0"
     fit-margin-right="0"
     fit-margin-bottom="0"
     inkscape:showpageshadow="false"
     showborder="true"
     inkscape:window-width="1920"
     inkscape:window-height="1200"
     inkscape:window-x="0"
     inkscape:window-y="0"
     inkscape:window-maximized="0" />
  <metadata
     id="metadata7">
    <rdf:RDF>
      <cc:Work
         rdf:about="">
        <dc:format>image/svg+xml</dc:format>
        <dc:type
           rdf:resource="http://purl.org/dc/dcmitype/StillImage" />
        <dc:title></dc:title>
      </cc:Work>
    </rdf:RDF>
  </metadata>
  <g
     inkscape:label="Layer 1"
     inkscape:groupmode="layer"
     id="layer1"
     transform="translate(-295.665,142.75634)">
    <g
       id="g3946"
       transform="matrix(0.9551717,0,0,0.9551717,24.723354,5.0723374)">
      <path
         id="path3895"
         transform="translate(295.665,-142.75634)"
         d="m 456.15625,-12 c -1.67134,0.002 -3.26307,0.0147 -5.0625,0.21875 A 12.0012,12.0012 0 0 0 451,-11.75 c -1.75835,0.21298 -2.42839,0.49829 -2.75,0.59375 a 12.0012,12.0012 0 0 0 -0.125,0.03125 c -0.74037,0.22768 -1.52119,0.52025 -2.40625,0.9375 -0.3168,0.14937 -0.99488,0.45701 -1.84375,0.96875 -0.0697,0.042496 -0.0482,0.015563 -0.125,0.0625 -1.14485,0.69993 -1.56423,1.07735 -1.5,1.03125 -1.41021,1.01119 -2.57659,2.04801 -3.6875,3.125 -0.12955,0.1227094 -0.25268,0.2206084 -0.53125,0.5 -0.003,0.003 -0.0879,0.0838 -0.28125,0.28125 -0.73533,0.75104 -0.97913,1.05366 -0.8125,0.875 -0.62114,0.66543 -1.09725,1.25051 -1.5,1.71875 -0.0448,0.0521 -0.41344,0.43167 -1.03125,1.1875 -0.43734,0.53495 -0.94195,1.15527 -1.46875,1.84375 -0.30033,0.3926 -0.58375,0.76058 -0.875,1.15625 -0.36258,0.49233 -0.73963,1.01414 -1.125,1.5625 -0.60703,0.86414 -1.03279,1.51725 -1.3125,1.9375 -0.14211,0.21339 -0.36139,0.55847 -0.6875,1.0625 -0.45898,0.70973 -0.90549,1.42913 -1.3125,2.09375 -0.007,0.0116 -0.0242,0.01975 -0.0312,0.03125 -0.0985,0.1599 -0.29521,0.45906 -0.5625,0.90625 -0.51194,0.85702 -1.03735,1.74244 -1.5625,2.6875 -0.35466,0.63782 -0.53125,1.04021 -0.59375,1.15625 -0.1297,0.24089 -0.38127,0.66071 -0.71875,1.3125 -0.41881,0.80869 -0.85705,1.67275 -1.28125,2.5625 -0.13326,0.27949 -0.20815,0.44171 -0.25,0.53125 -0.22393,0.47912 -0.50189,1.10015 -0.8125,1.8125 -0.29902,0.68739 -0.57874,1.36031 -0.84375,2.03125 -0.43194,1.09196 -0.79857,2.14649 -1.125,3.15625 -0.32134,0.99649 -0.40463,1.29236 -0.25,0.78125 0.0182,-0.0601 -0.10911,0.2834 -0.34375,1.15625 a 12.0012,12.0012 0 0 0 0,0.03125 c -0.0897,0.334608 -0.0813,0.332844 -0.125,0.53125 0.003,-0.0079 -0.0258,0.15665 -0.0312,0.1875 -0.029,0.141699 -0.12188,0.484678 -0.125,0.5 -1.8e-4,9.1e-4 1e-4,0.03085 0,0.03125 -0.0346,0.154235 -0.0433,0.111163 -0.0937,0.34375 -0.1593,0.73833 -0.19864,0.93811 -0.125,0.5625 -0.17068,0.86897 -0.35208,1.89679 -0.4375,3.375 a 12.0012,12.0012 0 0 0 0,0.03125 c -0.0114,0.207771 -0.0234,0.197253 -0.0312,0.34375 -0.0174,0.44092 -0.0179,1.06875 0.0312,1.90625 a 12.0012,12.0012 0 0 0 0,0.03125 c 0.0336,0.54697 0.0836,0.85432 0.0937,0.9375 0.001,0.009 -10e-4,0.02235 0,0.03125 0.13975,1.19658 0.34563,2.67619 1.28125,4.71875 0.008,0.0164 -0.008,0.01505 0,0.03125 0.63629,1.37364 1.12861,1.960964 1.15625,2 0.006,0.0088 0.0254,0.02232 0.0312,0.03125 0.37785,0.576965 0.9026,1.349921 1.71875,2.25 a 12.0012,12.0012 0 0 0 0,0.03125 c 0.28071,0.307618 0.47196,0.47803 0.5625,0.5625 0.0111,0.01128 0.0202,0.02 0.0312,0.03125 0.0115,0.0093 0.0306,0.03281 0.0312,0.03125 0.35063,0.348756 0.71046,0.585086 1.0625,0.90625 -0.38361,2.177376 -0.45764,3.357793 -1.15625,6.3125 -0.006,0.02714 0.006,0.03561 0,0.0625 -3.76111,15.890817 -11.24467,39.881808 -15.78125,53.90625 -2.1033,6.50215 -3.32778,10.08266 -3.53125,10.6875 -0.9048,1.81462 -2.01117,3.84194 -3.4375,6.1875 -0.46256,0.76067 -1.0399,1.64245 -1.6875,2.65625 -2.35845,3.6921 -5.21929,7.85699 -8.53125,12.375 -3.31565,4.52304 -7.07889,9.4184 -11.21875,14.59375 -12.41695,15.52276 -28.24244,33.586 -45.90625,52.4375 -2.96746,3.1671 -5.94376,6.36887 -8.96875,9.53125 -3.02807,3.1656 -6.12052,6.32513 -9.25,9.53125 0,0 1.9e-4,0.031 0,0.0312 -6.5e-4,9.3e-4 -0.0597,0.0585 -0.0625,0.0625 -9.32192,9.54847 -19.00194,19.16871 -28.8125,28.625 -3.29043,3.1715 -6.60239,6.31849 -9.875,9.40625 -24.73915,23.34181 -49.96458,45.19685 -72.53125,62.21875 -1.50737,1.13689 -3.00634,2.26579 -4.46875,3.34375 -2.94425,2.17023 -5.85956,4.24944 -8.71875,6.25 -1.42951,1.00008 -2.85003,1.97657 -4.21875,2.90625 -11.13,7.5598 -21.23087,13.48424 -29.5,17.1875 -1.05674,0.47325 -2.0082,0.86445 -2.875,1.21875 -0.0387,0.0158 -0.0867,0.047 -0.125,0.0625 -37.16893,12.32317 -76.22987,24.68202 -101.21875,34.1875 -2.22961,0.8483 -4.37495,1.68866 -6.46875,2.53125 -6.15644,2.47748 -11.12252,4.66215 -15.1875,7 a 12.0012,12.0012 0 0 0 -0.03125,0 c -0.58536,0.33722 -1.05642,0.71688 -1.59375,1.0625 -0.28778,0.0867 -0.46563,0.11468 -0.78125,0.21875 -0.92309,0.30499 -1.86574,0.65428 -2.78125,1 -1.01163,0.38202 -1.95757,0.75916 -2.84375,1.125 -0.97501,0.40281 -1.94037,0.80772 -2.875,1.21875 -0.82666,0.36355 -1.82252,0.79839 -2.9375,1.3125 -1.09662,0.50585 -2.07317,1.00773 -2.90625,1.40625 -9.68183,4.63141 -18.875,9.78125 -18.875,9.78125 a 12.0012,12.0012 0 0 0 -5.78125,7.5 c 0,0 -0.21835,0.9397 -0.4375,2.0625 l -0.03125,0 c -0.005,0.0227 0.005,0.0709 0,0.0937 -1.06169,5.39542 -2.44167,18.71993 4.375,34.84375 6.84568,16.19241 21.90889,34.5268 51.15625,50 a 12.0012,12.0012 0 0 0 2.15625,0.90625 c 26.96635,8.11159 53.82417,11.62068 80.0625,11.375 3.14033,-0.0294 6.17322,-0.12123 9.1875,-0.25 3.01353,-0.12873 6.10795,-0.2964 9.21875,-0.53125 3.0815,-0.23264 6.12009,-0.52006 9.125,-0.84375 79.63253,-8.57794 152.26439,-49.55555 210.65625,-97.375 58.39186,-47.81945 102.60864,-102.47571 125.46875,-141.125 11.31389,-19.12826 18.7112,-36.62373 23.09375,-52.625 0.34862,-1.27286 0.67882,-2.45901 0.96875,-3.625 15.07529,-60.62831 -16.63107,-98.51709 -27.03125,-112.59375 -0.04,-0.0542 -0.24137,-0.36593 -0.53125,-0.8125 -0.0212,-0.0337 -0.0416,-0.0603 -0.0625,-0.0937 -0.20289,-0.32454 -0.39205,-0.63929 -0.5625,-0.9375 -0.005,-0.008 0.005,-0.0232 0,-0.0312 -0.007,-0.0117 -0.0247,-0.0196 -0.0312,-0.0312 -3.30737,-5.94178 -3.45605,-15.276201 -1.90625,-23.46875 1.55481,-8.219058 4.21875,-14.25 4.21875,-14.25 a 12.0012,12.0012 0 0 0 0.0625,-0.125 c 0.73299,-0.991013 1.9469,-2.597445 3.21875,-4.84375 1.23798,-2.186483 2.42856,-5.390342 3,-9 2.34211,-1.057349 4.71862,-2.195731 7.09375,-3.4375 1.88625,-0.987862 3.88394,-2.063592 5.875,-3.25 0.008,-0.0046 0.0236,0.0046 0.0312,0 1.91929,-1.143272 3.74418,-2.33787 5.46875,-3.5625 1.39349,-0.989528 2.62817,-1.985315 3.71875,-2.9375 0.0158,-0.01376 0.0468,-0.01751 0.0625,-0.03125 8.4e-4,-5.39e-4 0.0308,3.38e-4 0.0312,0 8.6e-4,-5.55e-4 0.0312,-0.03125 0.0312,-0.03125 1.38885,-1.219695 2.76705,-2.525099 4.15625,-4.53125 1.39988,-2.02157 3.32788,-5.2219 2.71875,-10.25 -0.2479,-2.04642 -0.55946,-2.99669 -0.8125,-3.96875 0.296,1.13703 0.21898,0.79866 -0.0937,-0.375 -0.0129,-0.0481 0.0121,0.01325 0,-0.03125 -0.26181,-0.96739 -0.3554,-1.22332 -0.1875,-0.625 -0.31148,-1.1017 -0.72897,-2.41486 -1.21875,-3.84375 -0.003,-0.008 0.003,-0.02295 0,-0.03125 -0.15423,-0.45188 -0.33414,-0.95289 -0.53125,-1.5 a 12.0012,12.0012 0 0 0 0,-0.03125 c -0.0514,-0.14195 -0.14404,-0.4236 -0.3125,-0.875 -0.36871,-0.99342 -0.69491,-1.81564 -0.96875,-2.5 -10e-4,-0.003 -0.0299,0.003 -0.0312,0 -0.004,-0.0111 0.004,-0.02025 0,-0.03125 -0.004,-0.0107 0.004,-0.02065 0,-0.03125 -0.40508,-1.00945 -0.76482,-1.8403 -1.0625,-2.53125 a 12.0012,12.0012 0 0 0 0,-0.03125 c -0.002,-0.004 -0.0298,0.004 -0.0312,0 -0.005,-0.0109 0.005,-0.02035 0,-0.03125 -0.35778,-0.82923 -0.73757,-1.69344 -1.15625,-2.5938 -1.23334,-2.64224 -2.604,-5.30969 -4.15625,-7.84375 -0.007,-0.0122 -0.0239,-0.01915 -0.0312,-0.03125 -1.54227,-2.51747 -3.21904,-4.96507 -5.5625,-7.3125 -0.004,-0.004 -0.027,0.004 -0.0312,0 -0.30394,-0.30445 -0.66418,-0.69184 -1.15625,-1.125 a 12.0012,12.0012 0 0 0 -0.0312,-0.03125 c 0,0 -0.031,1.2e-4 -0.0312,0 -0.001,-9.5e-4 -0.0297,-0.02995 -0.0312,-0.03125 -0.0581,-0.0536 -0.39327,-0.40695 -1.3125,-1.09375 a 12.0012,12.0012 0 0 0 -0.0312,0 c 0,0 -0.0308,2.6e-4 -0.0312,0 -0.0134,-0.01 -0.0179,-0.02145 -0.0312,-0.03125 2e-5,1e-5 -0.0863,-0.0583 -0.0937,-0.0625 -0.32649,-0.23757 -0.64118,-0.47262 -0.875,-0.625 a 12.0012,12.0012 0 0 0 -0.0625,-0.03125 c 0.94711,0.61044 0.44976,0.25624 -0.53125,-0.34375 -0.0297,-0.0178 -0.0636,-0.0446 -0.0937,-0.0625 -0.53256,-0.31481 -1.17592,-0.64624 -1.75,-0.90625 A 12.0012,12.0012 0 0 0 501.625,-5.1875 c -2e-5,-10e-6 -0.061,4.9e-4 -0.0625,0 6e-5,2e-5 -0.17253,-0.0576 -0.1875,-0.0625 -0.99741,-0.43023 -1.78785,-0.71497 -2.46875,-0.9375 0.0442,0.0145 -0.0693,-0.0123 -0.0312,0 0.62844,0.20412 0.54617,0.16341 -0.46875,-0.15625 A 12.0012,12.0012 0 0 0 498.375,-6.375 c -0.50017,-0.15578 -0.80391,-0.23406 -0.96875,-0.28125 -0.007,-0.002 -0.0245,0.002 -0.0312,0 -0.39216,-0.11364 -0.96811,-0.28445 -1.6875,-0.46875 -0.88031,-0.22554 -1.59222,-0.36488 -2.1875,-0.5 a 12.0012,12.0012 0 0 0 0,-0.03125 c -0.4706,-0.10634 -1.12457,-0.24455 -1.90625,-0.40625 -0.56613,-0.11737 -0.92784,-0.192 -1.0625,-0.21875 -0.69157,-0.13737 -1.59915,-0.32552 -2.75,-0.53125 a 12.0012,12.0012 0 0 0 -1.21875,-0.15625 12.0012,12.0012 0 0 0 -0.125,0 c -7.49385,-1.28401 -15.99426,-2.27599 -23.40625,-2.71875 a 12.0012,12.0012 0 0 0 -1.4063,-0.1875 c -0.86059,-0.0434 -1.49689,-0.0467 -1.9375,-0.0625 -0.68509,-0.0248 -1.45088,-0.0511 -2.34375,-0.0625 -0.55553,-0.007 -0.95727,-2.5e-4 -1.1875,0 z m 33.28125,81.5625 c 0.0767,0.843783 0.0591,1.490126 -0.0312,2.125 a 12.0012,12.0012 0 0 0 0.0312,-2.125 z"
         style="font-size:medium;font-style:normal;font-variant:normal;font-weight:normal;font-stretch:normal;text-indent:0;text-align:start;text-decoration:none;line-height:normal;letter-spacing:normal;word-spacing:normal;text-transform:none;direction:ltr;block-progression:tb;writing-mode:lr-tb;text-anchor:start;baseline-shift:baseline;color:#000000;fill:#1f1f1f;fill-opacity:1;fill-rule:evenodd;stroke:none;stroke-width:24;marker:none;visibility:visible;display:inline;overflow:visible;enable-background:accumulate;font-family:Sans;-inkscape-font-specification:Sans"
         inkscape:connector-curvature="0" />
      <g
         transform="matrix(1.9940133,-0.76369398,0.76332141,1.9949866,-472.71445,-61.131785)"
         id="g3865">
        <path
           d="m 546.79135,203.7559 c 0,0 -11.60691,11.60691 -8.55246,22.60293 3.05445,10.99602 13.43958,37.87518 -25.04649,68.41968 -38.48607,30.5445 -150.27894,83.69193 -225.41841,25.65738 -21.37931,-24.4356 -9.16151,-40.31874 -9.16151,-40.31874 0,0 12.20986,-1.76547 17.10308,-1.22178 6.1089,-1.83267 34.82073,0 61.69989,1.22178 35.98753,-0.70863 134.3958,-46.42764 153.33339,-64.14345 0,0 23.21382,-28.10094 23.82471,-32.98806 0.61089,-4.88712 16.49403,9.77424 17.10492,14.05047 0.61089,4.27623 -4.88712,6.1089 -4.88712,6.71979 z"
           id="path1933"
           inkscape:connector-curvature="0"
           style="fill:#ffdc3b;fill-opacity:1;fill-rule:evenodd" />
        <path
           d="m 535.46545,182.00211 c -0.49482,0.0611 -0.81859,0.36653 -0.898,0.97742 -0.61089,4.88712 -23.82471,32.98806 -23.82471,32.98806 -18.93759,17.71581 -117.34586,63.43482 -153.33339,64.14345 -26.87916,-1.22178 -55.59099,-3.05445 -61.69989,-1.22178 -4.89323,-0.54369 -17.1037,1.22178 -17.1037,1.22178 0,0 -0.22359,0.32377 -0.55408,0.87968 6.6923,1.95485 18.87956,4.68553 38.58076,5.21089 45.44411,1.20346 64.52831,-1.26454 103.93071,-16.6101 41.31449,-16.09084 96.71,-36.77557 118.43325,-86.17214 -1.47225,-0.94077 -2.73679,-1.5089 -3.53095,-1.41726 z"
           id="path7201"
           inkscape:connector-curvature="0"
           style="fill:#ffe487;fill-opacity:1;fill-rule:evenodd" />
        <path
           d="m 537.8968,224.67888 c -4.99708,17.18434 -25.23587,62.65899 -102.89832,89.03722 -94.95674,32.24888 -118.09725,13.70226 -148.77004,4.86879 0.50093,0.60478 1.00186,1.22789 1.54555,1.851 75.13947,58.03455 186.93234,4.88712 225.41841,-25.65738 38.48607,-30.5445 28.10094,-57.42366 25.04649,-68.41968 -0.15272,-0.56202 -0.25657,-1.11793 -0.34209,-1.67995 z"
           id="path4646"
           inkscape:connector-curvature="0"
           style="fill:#feca18;fill-opacity:1;fill-rule:evenodd" />
        <path
           d="m 547.60384,168.80077 c -3.51262,-0.91633 -15.73042,8.73573 -15.51661,11.96734 0.21381,3.2255 11.88792,13.69615 19.2858,16.21913 2.44356,0.61089 15.88314,-0.61089 16.49403,-3.05445 0.61089,-2.44356 0.61089,-12.82869 -1.83267,-15.27225 -2.44356,-2.44356 -14.3437,-8.79682 -18.43055,-9.85977 z"
           id="path23294"
           inkscape:connector-curvature="0"
           style="fill:#884a13;fill-rule:evenodd" />
        <path
           d="m 547.60384,168.80077 c -3.51262,-0.91633 -15.73042,8.73573 -15.51661,11.96734 0.21381,3.2255 11.88792,13.69615 19.2858,16.21913 2.44356,0.61089 15.88314,-0.61089 16.49403,-3.05445 0.61089,-2.44356 0.61089,-12.82869 -1.83267,-15.27225 -2.44356,-2.44356 -14.3437,-8.79682 -18.43055,-9.85977 z"
           id="path22407"
           inkscape:connector-curvature="0"
           style="fill:#884a13;fill-rule:evenodd" />
        <path
           d="m 546.85244,168.74579 c -4.23957,0.31767 -14.96069,8.9923 -14.7591,12.02232 0.0855,1.30119 2.04037,3.76308 4.81381,6.41434 0.17105,-5.09482 2.70014,-12.48048 14.48421,-16.95219 -1.52112,-0.67198 -2.85286,-1.19124 -3.7753,-1.42949 -0.21992,-0.055 -0.48261,-0.0794 -0.76362,-0.055 z"
           id="path25958"
           inkscape:connector-curvature="0"
           style="fill:#a2663a;fill-opacity:1;fill-rule:evenodd" />
        <path
           style="fill:#6b390f;fill-opacity:1;fill-rule:evenodd"
           d="m 561.67163,175.60588 c -1.25679,9.65996 -6.11334,19.15347 -11.75,20.8125 0.5006,0.22061 0.9674,0.40218 1.4375,0.5625 2.44356,0.61089 15.88911,-0.61894 16.5,-3.0625 0.61089,-2.44356 0.63106,-12.80644 -1.8125,-15.25 -0.73791,-0.73791 -2.38794,-1.86488 -4.375,-3.0625 z"
           id="path26854"
           inkscape:connector-curvature="0" />
      </g>
    </g>
  </g>
</svg>
